<?xml version="1.0" encoding="utf-8"?>
<!-- Svg Vector Icons : http://www.onlinewebfonts.com/icon -->
<!DOCTYPE svg PUBLIC "-//W3C//DTD SVG 1.1//EN" "http://www.w3.org/Graphics/SVG/1.1/DTD/svg11.dtd">
<svg version="1.1" xmlns="http://www.w3.org/2000/svg" xmlns:xlink="http://www.w3.org/1999/xlink" x="0px" y="0px" viewBox="0 0 1000 1000" enable-background="new 0 0 1000 1000" xml:space="preserve">
<metadata> Svg Vector Icons : http://www.onlinewebfonts.com/icon </metadata>
<g fill="red"><path d="M301.7,500c0,109.5,88.8,198.3,198.3,198.3S698.3,609.5,698.3,500c0-109.5-88.8-198.3-198.3-198.3S301.7,390.5,301.7,500z"/><path d="M951.5,309.3c-24.7-58.4-60-110.8-105-155.7s-97.4-80.3-155.7-105C630.3,23,566.1,10,500,10c-66.1,0-130.3,13-190.7,38.5c-58.4,24.7-110.8,60-155.7,105c-45,45-80.3,97.4-105,155.7C23,369.7,10,433.9,10,500c0,66.1,13,130.3,38.5,190.7c24.7,58.4,60,110.8,105,155.7c45,45,97.4,80.3,155.7,105C369.7,977,433.9,990,500,990c66.1,0,130.3-13,190.7-38.5c58.4-24.7,110.8-60,155.7-105c45-45,80.3-97.4,105-155.7C977,630.3,990,566.1,990,500C990,433.9,977,369.7,951.5,309.3z M807.9,807.9C725.7,890.1,616.3,935.4,500,935.4c-116.3,0-225.6-45.3-307.9-127.5C109.9,725.6,64.6,616.3,64.6,500c0-116.3,45.3-225.6,127.5-307.9C274.4,109.9,383.7,64.6,500,64.6c116.3,0,225.6,45.3,307.9,127.5c82.2,82.2,127.5,191.6,127.5,307.9C935.4,616.3,890.1,725.6,807.9,807.9z"/></g>
</svg>